Coordinates
version=1
nRows=11
nColumns=36
inDegrees=yes

Units are S.I. units (second, meters, Newtons, ...)
If the header above contains a line with 'inDegrees', this indicates whether rotational values are in degrees (yes) or radians (no).

endheader
time	pelvis_tilt	pelvis_list	pelvis_rotation	pelvis_tx	pelvis_ty	pelvis_tz	hip_flexion_r	hip_adduction_r	hip_rotation_r	knee_angle_r	knee_angle_r_beta	ankle_angle_r	subtalar_angle_r	mtp_angle_r	hip_flexion_l	hip_adduction_l	hip_rotation_l	knee_angle_l	knee_angle_l_beta	ankle_angle_l	subtalar_angle_l	mtp_angle_l	lumbar_extension	lumbar_bending	lumbar_rotation	arm_flex_r	arm_add_r	arm_rot_r	elbow_flex_r	pro_sup_r	arm_flex_l	arm_add_l	arm_rot_l	elbow_flex_l	pro_sup_l
      4.46666670	    -14.44548766	      5.50250776	    -12.73000982	      0.83920815	      0.98613487	      0.10672584	     28.72947451	    -11.89048322	    -11.29385956	     16.68956911	      0.29128793	      4.47298905	      3.53533930	     -7.49999987	     21.73549032	     -9.35522258	     -8.88724584	     11.19223820	      0.19534141	      7.62852136	      6.80593550	     -7.49999987	     -9.73768185	     -2.55169536	      6.43705454	     61.76836224	      5.88727437	     62.41107991	    126.34332859	    105.74937258	     50.84722563	      7.22740618	     59.87586097	    121.44219881	    110.29362558
      4.48333330	    -14.12895621	      5.22399549	    -12.71646408	      0.83882967	      0.99166962	      0.10635406	     26.94667356	    -11.35873272	    -10.96132273	     14.60126831	      0.25484021	      3.85795945	      2.96086333	     -7.49999987	     20.15421130	     -9.25291980	     -8.54168217	      9.31004177	      0.16249088	      7.12709016	      6.77591439	     -7.49999987	     -8.96866068	     -2.26923630	      6.50329173	     61.00807608	      5.42218102	     62.64688659	    126.36506673	    105.74297253	     49.82366239	      7.27623884	     59.85699906	    120.90130129	    110.24346148
      4.50000000	    -12.89492998	      4.65669424	    -12.73723378	      0.84912969	      0.99352393	      0.10794675	     23.83045090	    -10.66444864	    -10.16926177	     12.06064097	      0.21049789	      2.82565400	      1.23800245	     -7.49999987	     17.38217125	     -9.14933606	     -7.65155465	      7.29121288	      0.12725567	      6.73881934	      6.02190025	     -7.49999987	     -9.02965000	     -1.93645016	      6.50051717	     60.03784870	      5.56271045	     62.31774943	    126.26438727	    105.52725992	     49.14634848	      7.62399372	     59.41129608	    120.31277610	    110.04985670
      4.51666670	    -12.14977410	      4.35744977	    -12.73781570	      0.85498721	      0.99216114	      0.10513565	     21.71276694	    -10.31664319	     -9.50590670	     10.26089455	      0.17908639	      2.19465390	      0.04469620	     -7.49999987	     15.48021206	     -8.97206772	     -6.83763528	      5.90276153	      0.10302262	      6.70799761	      5.59051653	     -7.49999987	     -8.46321548	     -1.61840607	      6.15948776	     59.22141459	      6.00510048	     62.83818698	    126.36049378	    105.38237268	     48.31793237	      7.75415441	     59.26225701	    120.28017570	    109.93612856
      4.53333330	    -11.24620784	      4.09043647	    -12.70610694	      0.86045899	      0.99605018	      0.10348246	     19.43714466	    -10.09121151	     -8.73524733	      8.47554100	      0.14792610	      1.50129543	     -1.47558675	     -7.49999987	     13.40529087	     -8.69882057	     -5.79519582	      4.52105599	      0.07890731	      6.75567512	      4.91616094	     -7.49999987	     -8.10055476	     -1.29908071	      5.56654056	     58.73493128	      6.56889126	     64.06530461	    126.14422699	    103.75006419	     47.44874883	      7.64202888	     59.06860984	    120.22837558	    109.30898521
      4.55000000	    -10.58658486	      3.94241591	    -12.63507521	      0.86615348	      0.99471804	      0.10076757	     17.67936030	    -10.05893832	     -8.15271542	      7.08192294	      0.12360287	      1.26812218	     -2.52915282	     -7.49999987	     11.82713463	     -8.42095581	     -4.98974076	      3.53146852	      0.06163575	      6.94585463	      4.61328238	     -7.49999987	     -7.70523501	     -1.10020601	      5.08500381	     58.36869491	      6.69062456	     64.92127303	    126.38928139	    103.48128031	     46.75418623	      7.47820014	     59.67750926	    120.46567616	    109.13888134
      4.56666670	    -10.05563909	      3.76723395	    -12.39489151	      0.87084243	      0.99551618	      0.10439906	     16.10727416	     -9.99624734	     -7.69095529	      5.94205836	      0.10370848	      1.03892865	     -3.77210158	     -7.49999987	     10.58092440	     -8.27275487	     -4.06302269	      2.76262954	      0.04821698	      6.99019575	      4.07470680	     -7.49999987	     -7.24295174	     -0.88082289	      4.48881249	     57.33595211	      6.99411082	     65.76533516	    126.43870881	    103.67364029	     45.60530471	      6.68197782	     60.84965810	    121.65579654	    109.19934079
      4.58333330	     -9.72298024	      3.70646648	    -12.24171227	      0.87076065	      0.99126274	      0.10359541	     14.93627813	     -9.99684915	     -7.23892128	      4.87329175	      0.08505499	      0.79260180	     -4.93042876	     -7.49999987	      9.62460111	     -8.08485466	     -3.23745041	      2.02132568	      0.03527879	      7.14434563	      3.55147340	     -7.49999987	     -6.54773355	     -0.74073281	      3.94500089	     56.93698864	      7.63242696	     66.17518022	    126.02154388	    103.70094972	     45.24114145	      6.42841744	     61.41905121	    122.53530721	    109.12991097
      4.60000000	     -9.66887889	      3.77926442	    -12.07464971	      0.86989228	      0.98871944	      0.10375077	     14.38713903	    -10.13559196	     -7.18867663	      4.35080132	      0.07593581	      1.25609016	     -5.29207636	     -7.49999987	      9.18969306	     -7.88146529	     -2.95176182	      1.55538114	      0.02714652	      7.50431989	      3.46114105	     -7.49999987	     -5.70994594	     -0.80513242	      3.78266150	     56.71775894	      7.74910968	     66.30663939	    125.89691901	    103.70465077	     45.21164613	      6.35316679	     61.70376699	    122.68736993	    109.12826474
      4.61666670	     -9.18889434	      3.56449584	    -11.59578843	      0.88080306	      0.99116744	      0.10474204	     12.82520700	    -10.09451852	     -6.98413562	      3.27243663	      0.05711479	      0.75733708	     -6.64790646	     -7.49999987	      8.12064707	     -7.82450667	     -1.83956846	      0.94033952	      0.01641202	      7.29686380	      2.71450324	     -7.49999987	     -5.17348502	     -0.62737804	      2.85987468	     55.19948208	      8.22501141	     66.49551659	    125.14309395	    103.64539897	     44.13829607	      5.35654046	     62.57455274	    123.17619263	    108.98934663
      4.63333330	     -9.07760230	      3.57762500	    -11.25026353	      0.88055299	      0.99161381	      0.10484440	     12.06935767	    -10.18952193	     -6.68691395	      2.62711054	      0.04585173	      0.62486084	     -7.86915120	     -7.49999987	      7.72549094	     -7.68413221	     -1.20517396	      0.67616453	      0.01180130	      7.28204239	      2.12404277	     -7.49999987	     -4.42835119	     -0.52784376	      2.00282880	     54.24716718	      8.57803884	     67.15123397	    124.27218162	    103.44986727	     43.16460157	      4.76504940	     63.04596302	    123.95598025	    108.27247697
